<?xml version="1.0" standalone="no"?>
<!DOCTYPE svg PUBLIC "-//W3C//DTD SVG 20010904//EN"
 "http://www.w3.org/TR/2001/REC-SVG-20010904/DTD/svg10.dtd">
<svg version="1.0"
    xmlns="http://www.w3.org/2000/svg" width="500.000000pt" height="500.000000pt" viewBox="0 0 500.000000 500.000000" preserveAspectRatio="xMidYMid meet">

    <g transform="translate(0.000000,500.000000) scale(0.100000,-0.100000)" fill="#000000" stroke="none">
        <path d="M979 3771 l-524 -520 470 0 469 -1 211 210 211 210 655 -6 c360 -4
660 -10 667 -13 6 -4 104 -96 217 -204 l204 -197 493 0 493 1 -525 519 -525
520 -996 0 -996 0 -524 -519z" fill="#d3383bff"/>
        <path d="M3351 2890 l-205 -5 -157 -245 c-86 -135 -229 -359 -317 -498 l-160
-253 -74 108 c-41 59 -190 282 -331 495 l-257 387 -373 -6 c-204 -3 -373 -7
-375 -8 -2 -2 72 -126 164 -277 92 -150 229 -374 304 -498 200 -330 429 -704
640 -1050 103 -168 213 -349 245 -403 l58 -98 50 88 c27 48 140 243 250 433
542 934 1017 1753 1048 1808 l18 32 -162 -2 c-89 -2 -254 -5 -366 -8z" fill="#d3383bff"/>
    </g>
</svg>
